<svg width="416" height="397" viewBox="0 0 416 397" fill="none" xmlns="http://www.w3.org/2000/svg">
<g opacity="0.05">
<path fill-rule="evenodd" clip-rule="evenodd" d="M131.5 569C288.625 569 416 441.625 416 284.5C416 127.375 288.625 0 131.5 0C-25.625 0 -153 127.375 -153 284.5C-153 441.625 -25.625 569 131.5 569ZM200.165 454.176C204.538 460.503 210.126 465.614 216.928 469.508H292C287.627 452.472 284.469 436.409 282.525 421.32C281.067 405.744 280.338 391.141 280.338 377.512V242.438C280.338 190.842 266.247 151.659 238.065 124.887C210.369 97.6291 170.525 84 118.534 84C101.527 84 81.6052 86.1904 58.7679 90.5712C35.9306 94.9519 13.5792 102.01 -8.28633 111.745L16.4946 175.996C33.5011 169.669 48.8069 165.288 62.4122 162.854C76.5033 160.42 89.6226 159.203 101.77 159.203C127.523 159.203 147.202 166.748 160.807 181.837C174.898 196.927 181.944 217.127 181.944 242.438V352.688C169.31 367.777 155.948 380.189 141.857 389.924C127.766 399.173 113.675 403.797 99.5835 403.797C86.9501 403.797 76.0173 399.659 66.7852 391.384C58.039 382.623 53.666 371.914 53.666 359.259C53.666 347.09 57.7961 336.381 66.0564 327.133C74.3167 317.885 87.679 311.8 106.143 308.88C121.692 305.959 133.111 298.171 140.399 285.516C148.174 272.86 153.275 258.014 155.705 240.978C117.319 243.898 85.2495 249.496 59.4967 257.771C33.744 265.559 13.0933 275.294 -2.45554 286.976C-17.5184 298.171 -28.2082 310.827 -34.5249 324.943C-40.8417 339.059 -44 353.661 -44 368.75C-44 383.353 -41.5705 397.226 -36.7115 410.368C-31.3666 423.51 -23.8351 435.192 -14.1171 445.414C-3.91324 455.636 7.99133 463.667 21.5965 469.508C35.6876 475.836 51.4794 479 68.9718 479C87.436 479 104.928 475.836 121.449 469.508C137.97 463.667 157.163 450.768 179.028 430.811L187.774 418.399L189.961 433.002C192.876 440.303 196.278 447.361 200.165 454.176Z" fill="white"/>
</g>
</svg>
