<svg width="75" height="50" viewBox="0 0 75 50" fill="none" xmlns="http://www.w3.org/2000/svg">
<path fill-rule="evenodd" clip-rule="evenodd" d="M37.3705 28.7253C34.1554 21.5294 29.4969 17.005 24.2853 14.3497C26.4123 9.09329 30.6773 4.07679 37.9376 0C42.3902 3.0472 47.5343 8.10112 50.4292 14.3632C45.2283 17.0203 40.5801 21.5416 37.3705 28.7253ZM36.355 32.3907C35.1117 37.0603 34.6009 42.6037 35.0718 49.1604C21.9923 52.0521 -6.2428 41.5153 1.24276 13.8665C12.239 12.1626 31.4068 14.3935 36.355 32.3907ZM37.8268 48.5516C49.6821 53.1762 81.5999 43.0599 73.6964 13.8671C60.0173 11.7475 33.6927 15.717 37.8268 48.5516Z" fill="#22A4EF"/>
</svg>
