<svg width="59" height="39" viewBox="0 0 59 39" fill="none" xmlns="http://www.w3.org/2000/svg">
<path fill-rule="evenodd" clip-rule="evenodd" d="M38.957 38.9917H0L3.26233 33.1019H37.9515C45.4175 33.1019 51.4699 27.0496 51.4699 19.5836C51.4699 12.1176 45.4175 6.06523 37.9515 6.06523H18.2379L21.5974 0H38.957C49.7242 0 58.4528 8.72859 58.4528 19.4958C58.4528 30.2631 49.7242 38.9917 38.957 38.9917ZM16.8116 8.64015H37.7676C43.8115 8.64015 48.711 13.5397 48.711 19.5836C48.711 25.6275 43.8115 30.527 37.7676 30.527H4.68857L8.55745 23.5422H37.3017C39.5364 23.5422 41.348 21.7306 41.348 19.4958C41.348 17.2611 39.5364 15.4495 37.3017 15.4495H13.0399L16.8116 8.64015Z" fill="#3D6DFF"/>
</svg>
